<?xml version="1.0" encoding="UTF-8" standalone="no"?>
<svg
   xmlns:dc="http://purl.org/dc/elements/1.1/"
   xmlns:cc="http://creativecommons.org/ns#"
   xmlns:rdf="http://www.w3.org/1999/02/22-rdf-syntax-ns#"
   xmlns:svg="http://www.w3.org/2000/svg"
   xmlns="http://www.w3.org/2000/svg"
   xmlns:sodipodi="http://sodipodi.sourceforge.net/DTD/sodipodi-0.dtd"
   xmlns:inkscape="http://www.inkscape.org/namespaces/inkscape"
   width="210mm"
   height="297mm"
   viewBox="0 0 210 297"
   version="1.1"
   id="svg961"
   inkscape:version="1.0.2-2 (e86c870879, 2021-01-15)"
   sodipodi:docname="Coriolis_ein_horiz.svg"
   inkscape:export-filename="Coriolis_ein_horiz.png"
   inkscape:export-xdpi="93.783241"
   inkscape:export-ydpi="93.783241">
  <defs
     id="defs955">
    <marker
       style="overflow:visible;"
       id="Arrow2Lend"
       refX="0.0"
       refY="0.0"
       orient="auto"
       inkscape:stockid="Arrow2Lend"
       inkscape:isstock="true">
      <path
         transform="scale(1.1) rotate(180) translate(1,0)"
         d="M 8.7185878,4.0337352 L -2.2072895,0.016013256 L 8.7185884,-4.0017078 C 6.9730900,-1.6296469 6.9831476,1.6157441 8.7185878,4.0337352 z "
         style="fill-rule:evenodd;stroke-width:0.625;stroke-linejoin:round;stroke:#000000;stroke-opacity:1;fill:#000000;fill-opacity:1"
         id="path2374" />
    </marker>
    <marker
       style="overflow:visible"
       id="Arrow1Lend"
       refX="0"
       refY="0"
       orient="auto"
       inkscape:stockid="Arrow1Lend"
       inkscape:isstock="true">
      <path
         transform="matrix(-0.8,0,0,-0.8,-10,0)"
         style="fill:#000000;fill-opacity:1;fill-rule:evenodd;stroke:#000000;stroke-width:1pt;stroke-opacity:1"
         d="M 0,0 5,-5 -12.5,0 5,5 Z"
         id="path967" />
    </marker>
  </defs>
  <sodipodi:namedview
     id="base"
     pagecolor="#ffffff"
     bordercolor="#666666"
     borderopacity="1.0"
     inkscape:pageopacity="0.0"
     inkscape:pageshadow="2"
     inkscape:zoom="5.6568543"
     inkscape:cx="189.24619"
     inkscape:cy="278.98564"
     inkscape:document-units="mm"
     inkscape:current-layer="layer3"
     inkscape:document-rotation="0"
     showgrid="false"
     inkscape:window-width="2560"
     inkscape:window-height="1377"
     inkscape:window-x="-8"
     inkscape:window-y="3"
     inkscape:window-maximized="1" />
  <metadata
     id="metadata958">
    <rdf:RDF>
      <cc:Work
         rdf:about="">
        <dc:format>image/svg+xml</dc:format>
        <dc:type
           rdf:resource="http://purl.org/dc/dcmitype/StillImage" />
        <dc:title></dc:title>
      </cc:Work>
    </rdf:RDF>
  </metadata>
  <g
     inkscape:label="Ebene 1"
     inkscape:groupmode="layer"
     id="layer1" />
  <g
     inkscape:groupmode="layer"
     id="layer3"
     inkscape:label="Ebene 3">
    <path
       id="path903-0"
       style="fill:#ffffff;fill-opacity:1;stroke:#000000;stroke-width:0.715001;stroke-miterlimit:4;stroke-dasharray:none;stroke-opacity:1"
       d="m 59.693896,72.320497 -8.892346,9.095556 c -0.270575,0.285297 -0.68036,0.458747 -1.107645,0.458747 -0.427286,0 -0.837071,-0.17345 -1.099797,-0.441998 l -8.906211,-9.1009 c -0.46293,-0.472966 -0.600767,-1.18107 -0.351402,-1.796251 0.249365,-0.615181 0.836824,-1.016289 1.466473,-1.01688 l 17.806858,-0.0046 c 0.596484,-0.0041 1.183943,0.39706 1.433308,1.012241 0.249366,0.61518 0.111528,1.323284 -0.349238,1.794124"
       sodipodi:nodetypes="ccsccsccsc" />
    <path
       style="fill:none;stroke:#878787;stroke-width:0.715001;stroke-linecap:butt;stroke-linejoin:miter;stroke-miterlimit:4;stroke-dasharray:0.715001, 0.715001;stroke-dashoffset:0;stroke-opacity:1"
       d="m 41.465654,74.170162 c 2.807349,-0.04778 2.786999,-0.03763 6.250839,2.150913 3.903211,2.32098 3.497403,2.9934 5.748414,0.533479 1.12482,-2.565374 -0.038,-2.638634 4.45314,-2.684393"
       id="path846-7"
       sodipodi:nodetypes="cccc" />
    <path
       id="path903-0-6"
       style="fill:none;fill-opacity:1;stroke:#000000;stroke-width:0.715001;stroke-miterlimit:4;stroke-dasharray:none;stroke-opacity:1"
       d="m 59.693896,72.320498 -8.892346,9.095557 c -0.270575,0.285298 -0.68036,0.458747 -1.107645,0.458747 -0.427286,0 -0.837071,-0.173449 -1.099797,-0.441998 l -8.906211,-9.100901 c -0.46293,-0.472966 -0.600767,-1.181069 -0.351402,-1.79625 0.249365,-0.615181 0.836823,-1.01629 1.466473,-1.016881 l 17.806858,-0.0046 c 0.596484,-0.004 1.183943,0.39706 1.433308,1.012241 0.249366,0.615181 0.111528,1.323285 -0.349238,1.794124"
       sodipodi:nodetypes="ccsccsccsc"
       inkscape:export-filename="Coriolis_ein_sized.png"
       inkscape:export-xdpi="93.783264"
       inkscape:export-ydpi="93.783264" />
    <g
       id="g2284"
       transform="translate(0.60024675,-1.0583333)">
      <path
         style="fill:none;stroke:#000000;stroke-width:0.3;stroke-linecap:butt;stroke-linejoin:miter;stroke-miterlimit:4;stroke-dasharray:none;stroke-opacity:1"
         d="M 49.105161,70.262817 V 68.538303"
         id="path881" />
      <path
         style="fill:none;stroke:#000000;stroke-width:0.3;stroke-linecap:butt;stroke-linejoin:miter;stroke-miterlimit:4;stroke-dasharray:none;stroke-opacity:1"
         d="M 38.663569,68.689494 H 59.546753"
         id="path883" />
      <path
         style="fill:none;stroke:#000000;stroke-width:0.3;stroke-linecap:butt;stroke-linejoin:miter;stroke-miterlimit:4;stroke-dasharray:none;stroke-opacity:1"
         d="M 38.663569,64.777436 H 59.546753"
         id="path883-5" />
      <path
         style="fill:none;stroke:#000000;stroke-width:0.3;stroke-linecap:butt;stroke-linejoin:miter;stroke-miterlimit:4;stroke-dasharray:none;stroke-opacity:1"
         d="m 59.546753,68.831235 v -4.19554"
         id="path881-3" />
      <path
         style="fill:none;stroke:#000000;stroke-width:0.3;stroke-linecap:butt;stroke-linejoin:miter;stroke-miterlimit:4;stroke-dasharray:none;stroke-opacity:1"
         d="m 38.632563,68.828282 v -4.19554"
         id="path881-3-6" />
    </g>
    <path
       style="fill:none;stroke:#000000;stroke-width:0.15;stroke-linecap:butt;stroke-linejoin:miter;stroke-miterlimit:4;stroke-dasharray:none;stroke-opacity:1;marker-end:url(#Arrow2Lend)"
       d="m 46.953386,71.933595 h 5.222282"
       id="path962" />
  </g>
  <g
     inkscape:groupmode="layer"
     id="layer2"
     inkscape:label="Ebene 2" />
</svg>
